<svg xmlns="http://www.w3.org/2000/svg" viewBox="0 -960 960 960" width="512" height="512">
  <defs>
    <linearGradient id="bg" x1="0%" y1="0%" x2="100%" y2="100%">
      <stop offset="0%" stop-color="rgba(59,130,246,0.15)" />
      <stop offset="100%" stop-color="rgba(6,182,212,0.1)" />
    </linearGradient>
  </defs>
  <!-- Background mimicking rounded-xl -->
  <rect x="50" y="-910" width="860" height="860" rx="200" fill="url(#bg)" stroke="rgba(59,130,246,0.3)" stroke-width="20" />
  <!-- Icon scaled down to 50% to match the 16px of 32px -->
  <g transform="translate(240, -240) scale(0.5)">
    <path d="M762-96 645-212l-88 88-28-28q-23-23-23-57t23-57l169-169q23-23 57-23t57 23l28 28-88 88 116 117q12 12 12 28t-12 28l-50 50q-12 12-28 12t-28-12Zm118-628L426-270l5 4q23 23 23 57t-23 57l-28 28-88-88L198-96q-12 12-28 12t-28-12l-50-50q-12-12-12-28t12-28l116-117-88-88 28-28q23-23 57-23t57 23l4 5 454-454h160v160ZM334-583l24-23 23-24-23 24-24 23Zm-56 57L80-724v-160h160l198 198-57 56-174-174h-47v47l174 174-56 57Zm92 199 430-430v-47h-47L323-374l47 47Zm0 0-24-23-23-24 23 24 24 23Z" fill="#60a5fa" />
  </g>
</svg>
